<svg xmlns="http://www.w3.org/2000/svg" width="42" height="32" viewBox="0 0 42 32" fill="none">
<path d="M16.7604 15.0204L4.86035 0L20.3965 1.63265L16.7604 15.0204Z" fill="#D12053"></path>
<path d="M6.01805 2.44897H4.2L10.8111 8.48979L6.01805 2.44897Z" fill="#9E1638"></path>
<path d="M17.4219 15.3471L21.2233 1.63281L32.6274 17.6328L17.4219 15.3471Z" fill="#E2136E"></path>
<path d="M33.2899 17.3071L28.6621 11.103L36.2649 9.79688L33.2899 17.3071Z" fill="#D12053"></path>
<path d="M35.6035 13.0602L36.9257 9.79492L39.9007 12.897L35.6035 13.0602Z" fill="#E2136E"></path>
<path d="M19.4052 24.3265L17.4219 16L32.2969 18.1224L19.4052 24.3265Z" fill="#D12053"></path>
<path d="M32.6285 18.4492L21.3896 24.1635L32.1327 19.9186L32.6285 18.4492Z" fill="#E2136E"></path>
<path d="M19.0745 26.4482L16.7606 15.8359L12.1328 31.9992L19.0745 26.4482Z" fill="#9E1638"></path>
</svg>