<svg xmlns="http://www.w3.org/2000/svg" width="42" height="32" viewBox="0 0 42 32" fill="none">
<path d="M34.6379 17.0417C34.6379 17.4708 34.6379 17.8387 34.5776 18.2678C34.4569 20.0456 33.9741 21.7007 33.3103 23.2333C33.0086 23.8463 32.7069 24.4593 32.3448 25.0111C29.75 29.1797 25.1638 31.9996 19.9138 31.9996C17.681 31.9996 15.569 31.5092 13.6379 30.5896C8.68965 28.1988 5.25 23.0494 5.25 17.0417C5.25 11.218 8.56897 6.12984 13.3966 3.67773C13.0345 4.16816 12.6724 4.71988 12.3707 5.2716C12.3707 5.33291 12.3103 5.33291 12.3103 5.39421C12.1293 5.57812 11.9483 5.70072 11.7672 5.88463C11.5259 6.06854 11.3448 6.31375 11.1034 6.55896C11.0431 6.62026 10.9828 6.68157 10.9828 6.74287C10.9224 6.80417 10.8621 6.86547 10.8621 6.92678L10.6207 7.17199C10.4397 7.3559 10.319 7.5398 10.1983 7.72371C9.59483 8.52065 9.11207 9.44019 8.68965 10.3597C8.62931 10.4823 8.62931 10.5436 8.56897 10.6662C8.50862 10.7888 8.50862 10.9115 8.44828 10.9728C8.26724 11.0954 8.26724 11.1567 8.26724 11.218L8.08621 11.7697C8.02586 11.8923 8.02586 12.0149 7.96552 12.1375C7.96552 12.1988 7.90517 12.2601 7.90517 12.3214C7.90517 12.444 7.84483 12.5666 7.84483 12.6892C7.78448 12.9957 7.66379 13.3636 7.66379 13.7314C7.66379 13.854 7.66379 13.9153 7.60345 14.0379V15.5705C7.60345 19.6164 9.41379 23.2333 12.3103 25.6241C14.5431 27.4632 17.3793 28.5666 20.4569 28.5666C23.2328 28.5666 25.8276 27.6471 27.9397 26.1145C29.5086 25.0111 30.7759 23.5398 31.681 21.8233C31.8017 21.5781 31.9224 21.3942 32.0431 21.149C32.7672 19.5551 33.1897 17.8387 33.25 15.9996V15.5705C33.25 15.1413 33.25 14.7122 33.1897 14.2831L33.25 14.3444C33.431 14.5283 33.6121 14.7122 33.8534 14.8348C34.0345 14.5283 34.2155 14.2218 34.4569 13.9766C34.5776 14.5283 34.6379 15.1413 34.6983 15.6931C34.5776 16.1835 34.6379 16.6126 34.6379 17.0417Z" fill="#EC1C24"></path>
<path d="M33.1894 15.57V15.9991C33.1894 18.6352 32.1032 20.8421 31.9825 21.1486C31.8618 21.3938 31.7412 21.5777 31.6205 21.8229C30.7153 23.5394 29.3877 25.0106 27.8791 26.1141C25.767 27.6467 23.1722 28.5662 20.3963 28.5662C17.3187 28.5662 14.4825 27.4627 12.2498 25.6237C9.35322 23.2329 7.54288 19.616 7.54288 15.57V14.0375C7.54288 13.9148 7.54288 13.8535 7.60322 13.7309C7.66357 13.3631 7.78426 12.9953 7.8446 12.6275C7.8446 12.5049 7.90495 12.3823 7.90495 12.2597C7.90495 12.1984 7.96529 12.1371 7.96529 12.0758C8.02564 11.9532 8.02564 11.8306 8.08598 11.708C8.14633 11.524 8.20667 11.4014 8.26702 11.2175C8.26702 11.1562 8.32736 11.0949 8.32736 11.0336C8.3877 10.911 8.3877 10.7884 8.44805 10.7271C8.50839 10.6045 8.50839 10.5432 8.56874 10.4206C8.99115 9.43975 9.47391 8.58152 10.0774 7.78458C10.198 7.60067 10.3791 7.41676 10.4998 7.23286C10.5601 7.17155 10.6205 7.04895 10.7412 6.98765C10.8015 6.92634 10.8015 6.86504 10.8618 6.80374C10.9222 6.74243 10.9825 6.68113 10.9825 6.61983C11.1636 6.37462 11.4049 6.19071 11.6463 5.9455C11.8274 5.76159 12.0084 5.57768 12.1894 5.45508C12.1894 5.51638 12.1291 5.57768 12.1291 5.57768C12.1291 5.63899 12.0687 5.70029 12.0687 5.76159C11.3446 7.29416 10.8618 9.07194 10.6808 11.0336C10.6205 11.524 10.6205 12.0758 10.6205 12.6275C10.6205 19.4321 14.5429 24.9493 19.4308 24.9493H19.9739C20.698 24.9493 21.3618 24.8267 22.0256 24.6428C25.3446 23.7233 27.7584 20.6581 27.7584 17.0413V16.7961C27.6981 14.6505 26.7929 12.6888 25.3446 11.3401C26.3705 11.3401 27.336 11.524 28.2412 11.7693C30.0515 12.2597 31.6808 13.1179 33.0687 14.2214L33.1291 14.2827C33.1291 14.7118 33.1894 15.1409 33.1894 15.57Z" fill="#F6921E"></path>
<path d="M33.1897 15.5696V15.9987C33.1897 18.8186 31.9828 21.1481 31.9828 21.2094C31.8622 21.4546 31.7415 21.6385 31.6208 21.8838C30.7156 23.6002 29.388 25.0715 27.8794 26.2362C25.707 27.8301 23.0518 28.6884 20.3363 28.6884C17.3794 28.6884 14.4828 27.6462 12.1897 25.7458C9.1725 23.2324 7.48285 19.5543 7.48285 15.6309C7.48285 11.7075 9.23285 7.96805 12.2501 5.45464L12.3708 5.33203C12.3708 5.39333 12.3104 5.39333 12.3104 5.45464C12.3104 5.51594 12.2501 5.57724 12.2501 5.57724C9.29319 8.02935 7.66388 11.7075 7.66388 15.5696C7.66388 19.493 9.35354 23.1098 12.3708 25.6232C14.5432 27.5236 17.3794 28.5658 20.3363 28.5658C23.0518 28.5658 25.5863 27.7075 27.8191 26.1136C29.3277 25.0102 30.6553 23.4776 31.5604 21.8225C31.6811 21.5772 31.8018 21.3933 31.9225 21.1481C31.9225 21.1481 33.1897 18.7573 33.1294 15.9987V15.5696C33.1294 15.1405 33.1294 14.7113 33.0691 14.3435V14.2822L33.1294 14.3435L33.1897 14.4048V15.5696Z" fill="#F6921E"></path>
<path d="M29.6904 7.47771C29.6904 7.47771 19.1904 5.45472 14.3024 14.7114C14.3024 14.7114 15.1473 8.33595 22.63 5.39342L21.1214 2.5735C21.1214 2.5735 24.1387 -0.185125 29.3887 0.550508L29.6904 7.47771Z" fill="#EC1C24"></path>
<path d="M16.7164 12.3845C16.7164 12.3845 20.8802 6.80591 30.475 8.27717L30.3543 5.02813C30.3543 5.02813 34.3371 4.90552 37.5957 7.72545L33.6129 13.8557C33.6129 13.8557 30.8974 10.6067 25.225 10.5454C22.8715 10.4841 20.0353 10.7906 16.7164 12.3845Z" fill="#F6921E"></path>
<path d="M18.9476 14.53C18.9476 14.53 18.0424 14.7139 18.1028 14.2848C18.1028 14.1009 18.2235 14.0396 18.2838 14.1009C18.2838 14.0396 18.1028 13.7944 18.5252 13.6718C18.6459 13.4879 18.7666 13.304 18.8269 13.1814C18.8873 13.0588 18.9476 12.8749 19.3097 12.9975C19.6718 13.0588 20.0338 13.4266 20.0942 13.5492C20.2752 13.5492 20.5166 13.6105 20.4562 13.6105L20.3355 13.7331C20.3355 13.7331 20.4562 13.7944 20.0942 13.7944C20.0942 13.8557 20.1545 13.917 20.2149 13.917C20.2752 13.9783 20.2149 13.9783 20.2149 14.0396C20.2149 14.0396 20.2752 14.2235 20.0942 14.1622C19.9131 14.1009 19.9131 14.0396 19.8528 14.0396C19.7924 14.0396 19.6718 14.0396 19.6718 14.1009C19.6718 14.1622 19.8528 14.2848 19.6718 14.2848C19.6114 14.3461 19.7321 14.4074 19.6718 14.4074C19.6114 14.4687 19.189 14.7752 19.008 14.8365C18.8269 14.8365 18.7666 14.7752 18.7666 14.7139C18.7666 14.6526 18.8873 14.5913 19.008 14.5913C18.9476 14.5913 19.008 14.53 18.9476 14.53Z" fill="#EC1C24"></path>
<path d="M18.8883 15.5083C18.8279 15.5083 18.5262 15.3244 18.7072 15.2631C18.8279 15.1405 19.4314 14.7727 19.5521 14.7114C19.6727 14.6501 19.8538 14.834 19.6727 14.9566C19.4917 15.1405 18.8883 15.5083 18.8883 15.5083Z" fill="#EC1C24"></path>
<path d="M19.7945 15.0805C19.7945 14.9579 19.9152 14.5901 19.9152 14.5288C19.9152 14.4675 20.217 14.4062 20.1566 14.774C20.0359 15.0805 19.7945 15.2031 19.7945 15.0805Z" fill="#EC1C24"></path>
<path d="M20.2166 14.3437C20.2166 14.3437 21.9063 14.2823 22.0269 14.3437C22.1476 14.405 22.7511 15.3245 22.57 16.1214C22.4494 16.9184 22.208 17.1023 21.1218 17.2249C21.1218 16.9797 21.0614 16.3053 20.9407 16.1214C20.82 15.9375 20.458 15.5084 20.3373 15.5084C20.3373 15.6923 20.2769 16.244 20.2769 16.244C20.2769 16.244 19.7338 16.3053 19.6735 16.1827V15.3245C19.6735 15.3245 20.1563 14.8954 20.2166 14.7728C20.2769 14.8341 20.3373 15.0793 20.8804 15.018C20.8804 15.0793 20.2166 15.1406 20.2166 14.3437Z" fill="#EC1C24"></path>
<path d="M19.5518 15.1406C19.5518 15.1406 19.0087 15.5697 18.888 15.6923C18.8277 15.815 18.7673 16.3054 19.4311 16.3054C19.5518 15.9989 19.5518 15.1406 19.5518 15.1406Z" fill="#EC1C24"></path>
<path d="M18.2846 15.8163C18.1035 15.8163 17.9828 15.755 17.9828 15.6324C17.9828 15.5098 18.2242 15.3259 18.4053 15.3872C18.526 15.4485 18.8277 15.5098 18.8277 16.0615C18.9484 16.1841 19.2501 16.4293 19.6725 16.4293C20.0949 16.4293 20.3363 16.4293 20.3363 16.5519V17.3489C20.3363 17.3489 19.8535 17.3489 18.6466 16.4906C18.526 16.368 18.4656 16.2454 18.4656 16.0615C18.4656 15.8776 18.3449 15.8163 18.2846 15.8163Z" fill="#EC1C24"></path>
<path d="M17.9228 15.877C17.7418 15.877 17.1383 16.3674 17.5607 16.5513L17.8021 16.3061C17.8021 16.3061 17.6814 16.6126 17.9228 16.6739C18.1642 16.7352 18.0435 16.5513 18.1642 16.5513C18.2245 16.6739 18.2245 16.7352 18.3452 16.7352C18.4659 16.7352 18.4659 16.3674 18.3452 16.1835C18.2849 15.9996 18.1642 15.877 17.9228 15.877Z" fill="#EC1C24"></path>
<path d="M20.4568 15.9375V17.5314C20.4568 17.5314 20.9395 17.3475 20.9999 17.2249C20.9999 16.9796 20.8792 15.9375 20.4568 15.9375Z" fill="#EC1C24"></path>
<path d="M19.1893 16.9805C19.1893 16.9805 19.7928 17.4096 20.1548 17.5322C20.0945 17.5935 19.8531 17.9613 19.7324 17.9C19.6721 17.9 19.2497 17.287 19.1893 16.9805Z" fill="#EC1C24"></path>
<path d="M16.2322 17.5938H17.077V17.9003H16.2925L16.2322 17.5938Z" fill="#EC1C24"></path>
<path d="M25.2249 17.4102H21.7853L22.3284 17.8393H25.2249V17.4102Z" fill="#EC1C24"></path>
<path d="M21.1196 17.4104C21.18 17.3491 21.6024 17.6556 21.4817 17.7169C21.361 17.7782 20.2748 18.2073 20.2145 18.2073C20.0938 18.146 20.1541 17.9008 20.2748 17.8395C20.3352 17.7782 20.9386 17.5943 21.1196 17.4104Z" fill="#EC1C24"></path>
<path d="M19.914 18.1452C19.7933 18.0839 19.1295 18.7582 19.4313 18.8195C19.733 18.8808 20.4571 19.0035 20.6382 19.1261C20.8192 19.0648 20.9399 18.8808 20.9399 18.8195C21.0606 18.8195 21.2416 19.0035 21.4226 18.9421C21.6037 18.8808 22.4485 18.2678 22.4485 18.1452C22.2675 18.0226 21.9054 17.7774 21.7244 17.7774C21.6037 17.7161 20.5175 18.3904 19.914 18.1452Z" fill="#EC1C24"></path>
<path d="M19.5521 19.0041C19.6124 19.0041 20.5176 19.3106 20.6986 19.3106C20.94 19.2493 20.94 19.0654 21.0607 19.0654C21.1814 19.0654 21.2417 19.188 21.4228 19.0654C21.6038 18.9428 22.0262 18.575 22.0865 18.5137C22.0865 18.6363 22.0865 19.0041 21.3021 19.3719C20.5176 19.7397 18.6469 20.2915 18.5865 20.5367C18.6469 20.5367 18.8883 20.4754 19.0693 20.4141C19.19 20.4754 19.371 20.7206 19.3107 21.1497C19.2503 21.5788 18.9486 22.2531 18.9486 22.437V23.6018C18.9486 23.6631 19.1296 24.2148 18.8883 24.1535C18.6469 24.0922 18.5262 24.0922 18.4055 24.1535C18.2848 24.1535 18.1038 24.3374 17.9831 24.2761C17.8021 24.2761 17.5607 24.1535 17.5607 24.0922C17.5607 24.0309 17.7417 24.0309 17.9228 23.9696C18.1038 23.9083 18.1641 23.7244 18.4659 23.6018C18.4659 23.4179 18.3452 21.8853 18.3452 21.5788C18.3452 21.2723 18.2245 20.598 18.4055 20.3528C18.5262 19.9849 19.2503 18.9428 19.5521 19.0041Z" fill="#EC1C24"></path>
<path d="M20.6989 19.863C20.6989 19.9856 21.242 21.3343 21.4834 21.3343C21.7247 21.3343 23.9575 20.8439 24.3799 21.0278C24.5006 21.2117 24.742 21.5182 24.742 21.7021C24.742 21.7021 24.8023 22.1312 24.742 22.1925C24.8023 22.1925 24.9834 22.1312 25.0437 22.0086C25.1041 21.886 25.0437 21.273 25.0437 21.1504C25.0437 21.0278 25.3454 20.4761 24.9834 20.5374C24.6213 20.5374 23.5954 20.5374 23.2334 20.4761C22.9316 20.4148 22.1472 20.2308 21.9661 20.3534C21.7851 20.4761 21.5437 20.7826 21.5437 20.8439C21.4834 20.8439 21.423 20.7826 21.5437 20.5374C21.6041 20.2921 21.9058 19.6178 21.8454 19.25C21.6644 19.3113 20.6989 19.863 20.6989 19.863Z" fill="#EC1C24"></path>
<path d="M19.4321 17.7156C19.4321 17.7769 19.4924 17.8995 19.5527 17.9608L17.8027 17.8382C17.8027 17.8382 17.6217 17.7156 17.6821 17.6543L19.4321 17.7156Z" fill="#EC1C24"></path>
<path d="M17.5007 17.5937H19.2507C19.2507 17.5937 19.1301 17.4098 19.0697 17.2872H17.4404C17.4404 17.2872 17.2594 17.2872 17.2594 17.655C17.2594 17.7164 17.3801 17.839 17.5007 17.5937Z" fill="#EC1C24"></path>
<path d="M15.8103 17.899H16.1723C16.1723 17.899 16.293 17.8377 16.1723 17.7151C16.0516 17.5925 15.8103 17.4699 15.9913 17.2247C15.8103 17.2247 15.5689 17.1634 15.6292 17.7151H15.4482C15.4482 17.7151 15.3878 17.4086 14.9654 17.4086C14.543 17.4086 13.5172 17.8377 13.5172 17.8377C13.5172 17.8377 14.6637 18.1442 14.9654 18.1442C15.2672 18.1442 15.4482 17.8377 15.4482 17.8377H15.5689C15.5689 17.8377 15.6292 18.0829 15.6896 18.1442V18.512C15.6896 18.512 15.5085 18.5733 15.5689 18.7572C15.5689 18.9412 15.6896 18.9412 15.7499 18.9412C15.8103 18.9412 15.8103 18.8799 15.9913 18.8799C16.0516 18.8186 15.9913 18.5733 15.8706 18.512V18.2668C15.8706 18.2668 15.9913 18.1442 15.9913 18.0829C15.9309 17.9603 15.8103 18.0216 15.8103 17.899Z" fill="#EC1C24"></path>
<path d="M17.921 19.6169C18.0417 19.5556 18.1021 19.3717 18.1021 19.3717V18.3295C18.1021 18.0843 17.6797 17.9004 17.6193 17.9004C17.559 17.9617 17.4383 18.023 17.3779 18.023C17.2572 18.023 17.1969 18.023 17.0762 17.9004C16.7141 17.9004 16.5331 18.3295 16.5331 18.3908C16.5331 18.4521 16.4728 19.249 16.5331 19.3717C16.5331 19.4943 16.6538 19.6169 16.7141 19.6782C16.6538 19.9234 16.2917 21.3333 16.7745 21.5172V21.7625H17.9814V21.5172C18.3435 21.2107 18.0417 19.9847 17.921 19.6169ZM16.5331 18.3295C16.5331 18.2682 16.7141 17.9617 16.9555 17.9617C17.0762 18.0843 17.1969 18.0843 17.3176 18.0843C17.4383 18.0843 17.559 17.9617 17.6193 17.9617C17.74 18.023 17.9814 18.1456 17.9814 18.3295V19.3717C17.9814 19.433 17.921 19.4943 17.8607 19.5556H17.6193V19.0651H16.8348V19.4943H16.6538C16.5935 19.433 16.5331 19.3717 16.5331 19.249V18.3295ZM17.3779 21.2107H17.1366C17.0762 21.2107 17.0159 21.1494 17.0159 21.0881C17.0159 21.0268 17.0762 20.9655 17.1366 20.9655H17.3779C17.4383 20.9655 17.4986 21.0268 17.4986 21.0881C17.4986 21.1494 17.4383 21.2107 17.3779 21.2107ZM17.8607 21.3333L17.2572 20.659L16.7141 21.3333C16.3521 21.2107 16.5935 20.1073 16.7141 19.6169H17.8607C17.9814 20.1073 18.1624 21.1494 17.8607 21.3333Z" fill="#EC1C24"></path>
<path d="M17.6816 20.1073C17.8023 19.9234 17.6212 19.8008 17.6212 19.8008H16.8971C16.6557 19.8008 16.7161 20.1073 16.7161 20.1073L17.1385 20.4751C17.2592 20.4751 17.5609 20.2912 17.6816 20.1073Z" fill="#EC1C24"></path>
<path d="M17.3786 20.537L17.801 21.0274C17.801 21.0274 17.7407 20.4144 17.7407 20.2305C17.6803 20.2918 17.3786 20.537 17.3786 20.537Z" fill="#EC1C24"></path>
<path d="M16.7767 20.2305C16.7767 20.4144 16.7164 21.0274 16.7164 21.0274L17.1388 20.537C17.1388 20.537 16.8974 20.2918 16.7767 20.2305Z" fill="#EC1C24"></path>
<path d="M17.6206 18.9429H17.6809V18.8816C17.6809 18.8203 17.6206 18.8203 17.6206 18.8203H16.9568C16.8964 18.8203 16.8964 18.8816 16.8964 18.8816V18.9429H16.9568H17.6206Z" fill="#EC1C24"></path>
<path d="M16.6547 21.7617H16.5943V21.823C16.5943 21.8843 16.6547 21.8843 16.6547 21.8843H17.8616C17.9219 21.8843 17.9219 21.823 17.9219 21.823V21.7617H17.8616H16.6547Z" fill="#EC1C24"></path>
<path d="M12.6129 17.41C12.6129 17.41 7.84566 6.8046 18.9491 0L21.6043 4.96552C21.6043 4.96552 19.7939 5.57854 17.8629 7.29502C15.7508 9.1341 13.5181 12.1992 12.6129 17.41Z" fill="#F6921E"></path>
</svg>