<svg xmlns="http://www.w3.org/2000/svg" width="42" height="32" viewBox="0 0 42 32" fill="none">
<path d="M31.9984 32H10.0004C9.34375 32 8.69349 31.8768 8.08679 31.6375C7.48009 31.3981 6.92883 31.0473 6.46449 30.6051C6.00015 30.1628 5.63183 29.6378 5.38055 29.06C5.12928 28.4822 4.99996 27.8629 5 27.2375V4.76252C4.99996 4.13711 5.12928 3.51781 5.38055 2.94C5.63183 2.36219 6.00015 1.83717 6.46449 1.39493C6.92883 0.952682 7.48009 0.601873 8.08679 0.362531C8.69349 0.123189 9.34375 -1.05836e-09 10.0004 0H31.9993C33.3255 0 34.5975 0.501764 35.5353 1.39491C36.4731 2.28805 37 3.49942 37 4.76252V27.2375C37 28.5006 36.4731 29.7119 35.5353 30.6051C34.5975 31.4982 33.3255 32 31.9993 32H31.9984Z" fill="#DEDFE0"></path>
<path d="M18.788 25.6964C18.8858 25.6915 18.9459 25.7057 18.9894 25.6837C19.6435 25.345 20.2283 24.8755 20.7108 24.3015C20.8653 24.1203 20.7396 24.0014 20.5981 23.9175C20.0779 23.6084 19.4877 23.4528 18.8901 23.4673C18.5736 23.473 18.5193 23.6101 18.7132 23.8731C18.9928 24.2523 19.0526 24.6644 18.933 25.117C18.8861 25.2936 18.8441 25.472 18.7891 25.6964H18.788ZM21.4004 25.5152C20.5437 26.0889 19.7077 26.671 18.8481 27.2126C18.456 27.4596 18.0377 27.3587 17.7261 27.0315C17.5043 26.8005 17.4189 26.5387 17.5282 26.209C17.6231 25.9255 17.6979 25.6349 17.752 25.3398C17.8294 24.9096 17.7233 24.5131 17.4851 24.1548C17.4344 24.0787 17.3801 24.0038 17.3369 23.9238C16.9721 23.2396 17.1677 22.5953 17.8746 22.3641C18.9649 22.006 20.0138 22.1503 20.9816 22.8127C21.1021 22.8952 21.2143 22.99 21.3314 23.0778C21.3366 23.0817 21.3512 23.0727 21.4016 23.0573C21.4016 22.8677 21.4039 22.6648 21.4016 22.4601C21.3981 22.2041 21.5097 22.0676 21.7592 22.0676H24.5839C24.8181 22.0676 24.9214 22.1884 24.9208 22.4356C24.9183 24.1795 24.9183 25.9234 24.9208 27.6673C24.9208 27.9312 24.8167 28.0486 24.5635 28.0465C23.5672 28.0375 23.6429 28.154 23.6452 27.1386C23.6467 26.0225 23.6467 24.9064 23.6452 23.7903C23.6452 23.3939 23.6274 23.3979 23.1375 23.3822C22.8408 23.3734 22.6964 23.4398 22.7022 23.8048C22.7217 25.0602 22.7105 26.3159 22.7091 27.5716C22.7091 27.9641 22.6346 28.0441 22.2687 28.0459C21.3644 28.0504 21.3935 28.1259 21.401 27.1456C21.4056 26.5801 21.4004 26.0149 21.4004 25.5152Z" fill="#4B4A4A"></path>
<path d="M13.5053 23.3762C12.9901 23.3762 12.4812 23.366 11.9731 23.3801C11.682 23.388 11.5514 23.2869 11.5505 22.9614C11.548 22.0683 11.5387 22.0683 12.3983 22.0683C13.0741 22.0683 13.7504 22.0683 14.4259 22.0683C14.6377 22.0683 14.8681 22.0493 14.8649 21.7733C14.8621 21.4907 14.646 21.3848 14.3957 21.4071C13.9118 21.4503 13.4291 21.5415 12.9455 21.5466C12.6578 21.5493 12.3494 21.4708 12.0825 21.35C11.6371 21.1481 11.5439 20.4108 11.9078 20.0762C11.9847 20.0053 12.1906 19.9727 12.2605 20.0285C12.909 20.5436 13.6063 20.3371 14.3031 20.2263C14.5304 20.1904 14.7711 20.1617 14.995 20.1997C15.7916 20.3353 16.1785 21.0234 15.953 21.8573C15.938 21.9122 15.9273 21.9687 15.9049 22.0686C16.1063 22.0686 16.2921 22.0686 16.4768 22.0686C16.7294 22.0686 16.8663 22.1725 16.8632 22.4635C16.8525 23.4677 16.9573 23.3771 16.0223 23.3762C15.69 23.3762 15.3575 23.3838 15.0252 23.3735C14.8373 23.3675 14.7496 23.4158 14.7401 23.6401C14.703 24.5157 14.8232 24.6307 15.6382 24.4372C15.8646 24.3837 16.0884 24.3164 16.3169 24.2753C16.5936 24.2261 16.8347 24.3822 16.8459 24.6609C16.8649 25.1938 16.9095 25.7427 16.8151 26.259C16.6425 27.2043 15.9639 27.6952 15.1411 27.9618C14.4817 28.1752 13.8031 28.1381 13.1437 27.9394C12.1811 27.649 11.5528 26.7342 11.5002 25.5292C11.4803 25.0803 11.5269 24.6262 11.5681 24.1766C11.5908 23.9263 11.7384 23.7817 11.9996 23.8116C12.077 23.8157 12.1546 23.8157 12.2321 23.8116C12.6774 23.8131 12.7157 23.872 12.7375 24.3273C12.7566 24.8128 12.8027 25.2967 12.8756 25.7765C12.9642 26.323 13.3071 26.643 13.8345 26.6669C14.2168 26.68 14.5993 26.6497 14.9754 26.5763C15.1454 26.5461 15.329 26.409 15.4394 26.2641C15.5499 26.1192 15.5833 25.9 15.6489 25.7134C15.4904 25.7077 15.3307 25.6856 15.1742 25.6998C14.8994 25.7246 14.6276 25.8037 14.3531 25.8022C13.7717 25.7994 13.5597 25.5573 13.5528 24.9456C13.5474 24.4574 13.5476 23.9692 13.5436 23.481C13.5436 23.4602 13.5286 23.4396 13.5028 23.3729L13.5053 23.3762Z" fill="#4B4A4A"></path>
<path d="M27.9627 23.3767C27.6971 23.3767 27.431 23.368 27.1661 23.3819C27.0815 23.3864 26.9995 23.4507 26.9164 23.4878C26.9641 23.5745 26.9917 23.6992 27.0634 23.7408C27.2245 23.8362 27.4086 23.8918 27.5812 23.9634C28.2927 24.2586 28.4097 25.0684 27.8018 25.5608C27.6203 25.7075 27.3931 25.7906 27.2035 25.9282C27.1051 25.9998 27.0432 26.1266 26.965 26.2302C27.0737 26.2839 27.1793 26.3736 27.2921 26.3854C27.8407 26.4433 28.3916 26.4741 28.9408 26.5276C29.1646 26.5493 29.2489 26.4485 29.2377 26.2305C29.2262 25.9989 29.2046 25.7679 29.1983 25.5361C29.1827 24.979 29.1752 24.4217 29.1606 23.8646C29.1522 23.5503 29.0245 23.3613 28.6931 23.3761C28.45 23.3873 28.206 23.3782 27.9624 23.3782L27.9627 23.3767ZM30.4914 24.8274C30.4914 25.5717 30.496 26.3159 30.4914 27.0601C30.4856 27.7784 29.9894 28.2074 29.3438 27.9961C28.3619 27.6742 27.3657 27.6498 26.3551 27.7084C25.6359 27.7497 25.3945 27.497 25.3859 26.7392C25.3859 26.716 25.3859 26.6927 25.3859 26.6695C25.383 25.6372 25.3859 25.6466 26.3065 25.2673C26.4831 25.1943 26.7518 25.0131 26.7492 24.8866C26.7437 24.5847 26.4405 24.5889 26.2118 24.5578C25.5789 24.4712 25.4034 24.2746 25.3902 23.6137C25.3824 23.2303 25.3937 22.8462 25.3902 22.4628C25.3882 22.1829 25.5208 22.067 25.7806 22.0676C27.2208 22.0702 28.661 22.0702 30.1016 22.0676C30.3858 22.0676 30.4983 22.1986 30.4954 22.4903C30.4882 23.2692 30.4928 24.0485 30.4928 24.8274H30.4914Z" fill="#4B4A4A"></path>
<path d="M27.806 30.0002C27.6925 30.0014 27.5799 29.979 27.4747 29.9343C27.3695 29.8895 27.2738 29.8234 27.1931 29.7396C27.1124 29.6558 27.0483 29.5561 27.0045 29.4462C26.9607 29.3363 26.9381 29.2184 26.938 29.0993C26.936 28.586 27.306 28.1977 27.7971 28.1935C28.2835 28.1911 28.6661 28.5836 28.6702 29.0887C28.6697 29.3291 28.5787 29.5596 28.4171 29.7301C28.2554 29.9005 28.0362 29.997 27.8071 29.9987L27.806 30.0002Z" fill="#4B4A4A"></path>
<path d="M28.7635 15.6554C28.7622 15.6574 28.7609 15.6594 28.7594 15.6613C27.9925 16.6709 26.9963 17.5215 25.8402 18.1478C24.6151 18.751 23.1748 18.9694 21.8147 18.996C22.202 18.8244 22.524 18.5279 22.7318 18.1516C22.9396 17.7754 23.0219 17.3399 22.966 16.9115C22.9102 16.483 22.7194 16.0848 22.4225 15.7776C22.1257 15.4703 21.739 15.2707 21.3213 15.2091C23.8471 15.1169 25.8768 13.2449 25.9755 10.9147C25.9784 10.8556 25.9795 10.7965 25.9795 10.7374C25.9795 10.6132 25.9743 10.4903 25.9628 10.3694C25.9628 10.1602 25.9657 9.924 25.9795 9.7251C26.013 9.24157 26.6656 8.90286 26.6656 8.90286H29.2975C29.8777 8.99419 30.0557 9.63347 30.0557 9.63347C30.3812 13.0078 28.8494 15.5168 28.7629 15.6563L28.7635 15.6554Z" fill="#144A96"></path>
<path d="M16.5542 5.28104C16.5541 5.73208 16.4235 6.17297 16.1789 6.54797C15.9342 6.92296 15.5865 7.21521 15.1797 7.38776C14.7728 7.56031 14.3252 7.60542 13.8934 7.51737C13.4615 7.42931 13.0649 7.21206 12.7536 6.89309C12.4423 6.57411 12.2303 6.16774 12.1445 5.72536C12.0586 5.28297 12.1028 4.82445 12.2713 4.40776C12.4399 3.99108 12.7252 3.63495 13.0914 3.38441C13.4575 3.13388 13.8879 3.00019 14.3283 3.00024C14.6206 3.00024 14.9101 3.05923 15.1802 3.17384C15.4503 3.28845 15.6956 3.45644 15.9023 3.6682C16.1091 3.87997 16.273 4.13137 16.3848 4.40806C16.4967 4.68474 16.5542 4.98157 16.5542 5.28104Z" fill="#FED600"></path>
<path d="M30.1017 5.28104C30.1017 5.73207 29.9711 6.17295 29.7264 6.54794C29.4818 6.92292 29.1341 7.21517 28.7273 7.38773C28.3204 7.56029 27.8729 7.60541 27.441 7.51739C27.0092 7.42936 26.6126 7.21214 26.3012 6.89319C25.9899 6.57425 25.7779 6.1679 25.692 5.72554C25.6062 5.28317 25.6503 4.82465 25.8188 4.40797C25.9873 3.99128 26.2726 3.63513 26.6387 3.38456C27.0048 3.13399 27.4352 3.00024 27.8755 3.00024C28.1679 3.00021 28.4574 3.05917 28.7275 3.17376C28.9976 3.28835 29.243 3.45633 29.4498 3.6681C29.6565 3.87987 29.8205 4.13129 29.9324 4.40799C30.0442 4.68469 30.1018 4.98155 30.1017 5.28104Z" fill="#144A96"></path>
<path d="M22.9825 17.174C22.9832 17.5616 22.8729 17.9409 22.6652 18.2649C22.4576 18.5889 22.1618 18.8435 21.8143 18.997C21.2554 19.0088 20.7099 18.9875 20.1986 18.9473C18.3757 18.8046 16.9801 18.4227 16.9268 18.4082H16.9253C15.0695 17.542 13.5707 16.1201 12.687 14.379C12.6789 14.3639 12.6711 14.3494 12.663 14.3323C11.9956 12.9922 12.1108 9.64506 12.1108 9.64506C12.1249 9.09799 12.7744 8.8911 12.7744 8.8911H15.3999C15.908 8.95021 16.1619 9.57087 16.1619 9.57087L16.2733 10.3984C16.1867 10.8054 16.2701 11.2978 16.3907 11.7207V11.7228C16.4699 12.0504 16.5882 12.3668 16.743 12.6647C16.7444 12.668 16.7464 12.6709 16.7479 12.6742C16.7492 12.6772 16.7508 12.6802 16.7525 12.6831V12.686C17.4975 14.1047 19.0318 15.1075 20.8302 15.2065C20.9273 15.2118 21.0253 15.2145 21.1242 15.2145C21.1902 15.2145 21.2557 15.2145 21.3204 15.2103C21.7819 15.2776 22.2041 15.5133 22.5093 15.8742C22.8146 16.2351 22.9822 16.6968 22.9814 17.1743L22.9825 17.174Z" fill="#FED600"></path>
</svg>