<svg width="768" height="343" viewBox="0 0 768 343" fill="none" xmlns="http://www.w3.org/2000/svg"><path d="M1.48696 46.1923C-0.0655628 46.9003 -0.438449 48.8637 0.539135 50.2612L43.4504 111.606C65.7364 74.3287 113.263 60.9036 153.296 74.2072L154.04 2.86318C154.058 1.15831 152.641 -0.252499 150.959 0.0381689C142.11 1.56778 141.21 8.42283 141.851 12.842C141.926 13.3563 141.498 13.8201 140.978 13.8049C139.765 13.7694 138.528 13.9291 137.309 14.3058C131.181 16.1978 127.797 22.847 129.749 29.1572C131.278 34.1014 135.631 37.3705 140.391 37.6441C140.954 37.6765 141.35 38.2582 141.098 38.7634C137.71 45.5647 131.744 50.9755 124.032 53.3567C113.489 56.6123 102.441 53.3536 95.0108 45.8388C94.2316 45.0507 94.8018 43.7033 95.8612 43.3761C101.376 41.6733 104.422 35.689 102.665 30.0098C100.908 24.3307 95.0132 21.1072 89.4986 22.81C88.7383 23.0447 88.025 23.3609 87.3646 23.7464C86.9241 24.0036 86.2812 23.6028 86.3231 23.0947C86.5548 20.2897 85.6638 17.4097 83.8882 15.2244C77.9656 7.93503 66.1889 11.8304 65.4381 20.9215C65.2065 23.7266 66.0974 26.6065 67.873 28.7918C68.1946 29.1876 67.8901 29.8809 67.3811 29.9169C66.6182 29.9708 65.8508 30.112 65.0905 30.3467C59.5759 32.0495 56.5297 38.0338 58.2867 43.713C60.0437 49.3922 65.9385 52.6157 71.4531 50.9129C72.5126 50.5857 73.7444 51.3767 73.5462 52.4667C71.6561 62.8593 64.3754 71.7776 53.8322 75.0331C46.1205 77.4143 38.1388 76.3104 31.5002 72.6051C31.0071 72.3298 31.005 71.6267 31.4523 71.2821C35.2276 68.373 36.9743 63.2206 35.4447 58.2764C33.4925 51.9662 26.9427 48.3846 20.8153 50.2766C19.5955 50.6532 18.4845 51.2184 17.5025 51.9319C17.0819 52.2375 16.4672 52.0955 16.2384 51.6288C14.2719 47.6189 9.657 42.4666 1.48696 46.1923Z" fill="#3959D9"></path><path d="M148.415 135.239C135.639 124.116 112.911 124.827 101.219 136.916C88.7348 149.864 89.4214 172.546 102.197 185.06C116.689 198.507 140.663 196.947 153.306 181.467H138.633V147.934H201.479V201.108C186.212 227.765 157.322 244.701 126.407 244.701C92.7249 244.701 61.2453 224.872 47.4214 193.922C34.2443 163.328 41.2295 125.553 64.5389 101.706C93.1757 72.4371 146.041 67.0034 178.004 94.0415L148.415 135.239Z" fill="#3959D9"></path><path d="M269.28 80.8678H214.993V240.629H314.275V198.713H269.28V80.8678Z" fill="#3959D9"></path><path fill-rule="evenodd" clip-rule="evenodd" d="M397.45 77.0355C352.07 77.0355 311.862 114.65 311.862 160.868C311.862 206.723 351.541 244.701 397.45 244.701C442.832 244.701 483.037 207.177 483.037 160.868C483.037 115.148 443.155 77.0355 397.45 77.0355ZM397.45 194.401C379.077 194.401 363.215 179.209 363.215 160.868C363.215 142.32 379.28 127.335 397.45 127.335C415.745 127.335 431.685 142.57 431.685 160.868C431.685 179.353 415.594 194.401 397.45 194.401Z" fill="#3959D9"></path><path fill-rule="evenodd" clip-rule="evenodd" d="M552.787 80.8678H496.544V240.629H548.63V200.15L573.084 240.629H634.218L603.651 187.934C625.798 172.315 631.721 140.444 620.035 116.557C608.286 90.9253 579.479 80.8678 552.787 80.8678ZM573.573 141.706C573.573 155.851 560.589 159.431 548.63 159.431V123.982C560.142 123.982 573.573 127.753 573.573 141.706Z" fill="#3959D9"></path><path d="M614.676 80.8678L665.295 171.886V240.629H717.381V171.886L768 80.8678H710.045L691.46 114.64L672.631 80.8678H614.676Z" fill="#3959D9"></path><path d="M361.521 340.654C356.038 339.216 351.583 337.298 348.156 334.902L354.838 319.905C361.435 324.252 390.305 334.253 390.305 321.138C390.305 314.759 378.2 312.679 369.646 311.21C366.66 310.697 364.107 310.258 362.651 309.737C344.574 302.921 346.199 278.71 363.679 271.116C376.87 265.468 395.168 267.129 407.371 274.3L401.1 289.399C393.823 285.473 380.287 280.392 372.315 285.702C368.592 288.044 368.725 292.844 372.829 294.638C376.795 296.372 381.109 297.294 385.41 298.213C393.117 299.861 400.784 301.5 406.343 307.785C412.126 314.008 411.316 324.665 406.754 331.307C397.234 345.166 375.818 344.403 361.521 340.654Z" fill="#FC4665"></path><path d="M193.983 305.423C193.983 327.576 212.408 342.811 233.562 342.811C245.319 342.811 257.023 338.635 264.506 329.252L251.553 317.543C246.892 323.158 241.238 325.966 234.59 325.966C222.714 325.966 214.543 316.877 214.543 305.423C214.543 293.761 222.991 284.88 234.59 284.88C241.238 284.88 246.892 287.687 251.553 293.302L264.506 281.593C257.023 272.211 245.319 268.035 233.562 268.035C212.117 268.035 193.983 283.699 193.983 305.423Z" fill="#FC4665"></path><path fill-rule="evenodd" clip-rule="evenodd" d="M284.507 341.373L290.162 327.404H320.591L326.245 341.373H347.423L315.554 269.473H295.507L263.741 341.373H284.507ZM305.376 289.399L314.629 312.407H296.124L305.376 289.399Z" fill="#FC4665"></path><path d="M440.11 269.473H419.755V341.373H440.11V269.473Z" fill="#FC4665"></path><path d="M523.058 269.473V341.373H506.301L474.535 303.06V341.373H454.591V269.473H471.348L503.114 307.785V269.473H523.058Z" fill="#FC4665"></path><path fill-rule="evenodd" clip-rule="evenodd" d="M533.715 305.423C533.715 327.628 552.575 342.811 573.706 342.811C594.777 342.811 613.696 327.564 613.696 305.423C613.696 283.623 595.071 268.035 573.706 268.035C552.575 268.035 533.715 283.217 533.715 305.423ZM593.135 305.423C593.135 316.565 585.021 325.966 573.706 325.966C562.176 325.966 554.276 316.41 554.276 305.423C554.276 294.29 562.406 284.88 573.706 284.88C585.189 284.88 593.135 294.466 593.135 305.423Z" fill="#FC4665"></path></svg>