<svg width="28" height="28" viewBox="0 0 28 28" fill="none" xmlns="http://www.w3.org/2000/svg"><path d="M6.00754 16.2666C6.03898 14.8717 6.2486 13.514 6.95783 12.2602C7.25992 11.7082 7.69158 11.2279 8.22022 10.8555C8.70002 10.5229 9.00436 10.6301 9.13324 11.1771C9.30094 11.897 9.56296 12.5742 10.0498 13.1606C10.13 13.2619 10.2192 13.3567 10.3164 13.444C10.5773 13.6628 10.8987 13.9735 11.2062 13.8816C11.488 13.7951 11.3389 13.3663 11.3389 13.0939C11.3389 10.1805 12.2065 7.5712 14.3598 5.40611C14.7908 4.96148 15.2641 4.55465 15.7736 4.19064C16.2616 3.8504 16.6086 3.97183 16.6331 4.51885C16.6959 5.96188 17.3458 7.17625 18.218 8.31952C19.2417 9.66299 20.39 10.9386 21.0654 12.4878C22.2614 15.2371 22.485 17.9919 20.6555 20.5738C18.7922 23.2049 16.0869 24.3799 12.7516 23.8876C9.50474 23.4073 7.36542 21.5781 6.33595 18.6362C6.0799 17.8705 5.96875 17.0684 6.00754 16.2666ZM14.6009 16.1451C13.8195 16.9558 13.5528 17.7359 13.5097 19.3178C13.4887 19.9972 13.1813 20.1668 12.5 19.9042C12.1006 19.7511 11.8781 19.4185 11.5823 19.0717C11.3291 19.7178 11.264 20.4157 11.3937 21.0934C11.5998 22.2028 12.6619 23.1054 13.7752 23.1612C14.3884 23.2037 14.9981 23.0424 15.4975 22.7054C15.9969 22.3684 16.3543 21.8772 16.5073 21.3177C16.8567 20.1274 16.4886 19.0629 15.7818 18.0739C15.3497 17.47 14.8652 16.9 14.5986 16.1462L14.6009 16.1451Z" fill="#989898"></path></svg>