<svg width="424" height="421" viewBox="0 0 424 421" fill="none" xmlns="http://www.w3.org/2000/svg" class="GameHistoryEmpty__image-icon"><g clip-path="url(#clip0_6772_45935)" filter="url(#filter0_d_6772_45935)"><path fill-rule="evenodd" clip-rule="evenodd" d="M114.532 267.562C123.7 244.845 140.216 225.851 161.447 213.607C182.679 201.363 207.405 196.575 231.684 200.005C222.519 222.724 206.004 241.72 184.772 253.964C163.539 266.208 138.812 270.995 114.532 267.562Z" fill="#FFC059"></path><path fill-rule="evenodd" clip-rule="evenodd" d="M154.562 244.484C159.412 232.466 168.149 222.419 179.38 215.942C190.611 209.464 203.691 206.931 216.535 208.744C211.685 220.761 202.948 230.808 191.717 237.285C180.485 243.763 167.406 246.297 154.562 244.484Z" fill="#FEFFFF"></path><path fill-rule="evenodd" clip-rule="evenodd" d="M229.596 125.683L240.561 144.654C240.855 145.16 241.045 145.718 241.122 146.298C241.199 146.877 241.161 147.466 241.01 148.03C240.858 148.595 240.597 149.124 240.241 149.587C239.884 150.051 239.44 150.439 238.933 150.73L196.227 175.359C195.724 175.659 195.164 175.852 194.583 175.928C194.002 176.003 193.411 175.959 192.847 175.798L162.901 167.775C162.332 167.632 161.799 167.375 161.333 167.018C160.868 166.662 160.48 166.215 160.193 165.704L149.23 146.728C148.937 146.222 148.746 145.664 148.669 145.084C148.592 144.505 148.631 143.916 148.782 143.351C148.933 142.787 149.194 142.258 149.551 141.794C149.907 141.331 150.351 140.943 150.858 140.651L193.559 116.021C194.063 115.723 194.622 115.53 195.203 115.455C195.785 115.379 196.375 115.422 196.939 115.582L226.885 123.606C227.454 123.75 227.988 124.009 228.454 124.366C228.92 124.723 229.309 125.171 229.596 125.683Z" fill="#FF5363"></path><path fill-rule="evenodd" clip-rule="evenodd" d="M295.078 238.974L284.113 220.003C283.822 219.496 283.432 219.051 282.968 218.694C282.504 218.337 281.974 218.075 281.408 217.924C280.842 217.772 280.252 217.734 279.672 217.811C279.091 217.887 278.532 218.078 278.025 218.372L235.332 242.998C234.82 243.283 234.371 243.67 234.014 244.135C233.657 244.6 233.399 245.133 233.255 245.701L225.239 275.618C225.079 276.182 225.037 276.772 225.113 277.353C225.19 277.934 225.385 278.494 225.686 278.997L236.661 297.97C236.953 298.477 237.342 298.921 237.806 299.277C238.27 299.634 238.8 299.895 239.365 300.046C239.93 300.198 240.519 300.236 241.099 300.16C241.679 300.083 242.238 299.893 242.744 299.6L285.444 274.97C285.957 274.686 286.405 274.3 286.762 273.836C287.119 273.372 287.377 272.84 287.519 272.272L295.536 242.356C295.693 241.79 295.733 241.199 295.655 240.618C295.576 240.036 295.38 239.477 295.078 238.974Z" fill="#E64859"></path><path fill-rule="evenodd" clip-rule="evenodd" d="M295.079 238.975L284.114 220.004C283.822 219.498 283.433 219.053 282.969 218.697C282.505 218.341 281.976 218.08 281.411 217.928C280.846 217.777 280.256 217.738 279.676 217.815C279.097 217.891 278.537 218.082 278.031 218.374L235.332 242.999C234.82 243.285 234.372 243.672 234.015 244.136C233.658 244.601 233.4 245.134 233.256 245.702L230.957 254.284C233.404 255.689 236.165 256.46 238.987 256.527C257.377 257.019 275.739 254.824 293.491 250.012L295.546 242.342C295.701 241.779 295.74 241.189 295.66 240.61C295.579 240.031 295.382 239.475 295.079 238.975Z" fill="#C02A3E"></path><path fill-rule="evenodd" clip-rule="evenodd" d="M185.768 194.116C198.834 170.108 220 151.511 245.502 141.633C271.005 131.756 299.192 131.236 325.051 140.168C326.856 140.789 328.375 142.04 329.33 143.691C330.284 145.342 330.609 147.282 330.245 149.154C325.058 175.988 310.514 200.11 289.199 217.232C267.884 234.353 241.179 243.364 213.832 242.662C213.153 242.655 212.488 242.468 211.904 242.12C211.32 241.773 210.838 241.278 210.507 240.685L185.826 197.96C185.483 197.379 185.298 196.719 185.288 196.045C185.278 195.371 185.443 194.706 185.768 194.116Z" fill="#5E6274"></path><path fill-rule="evenodd" clip-rule="evenodd" d="M195.752 170.558C216.008 133.343 248.819 104.517 288.352 89.2038C327.884 73.8908 371.578 73.0831 411.664 86.9243C413.289 87.4824 414.779 88.3764 416.035 89.5481C417.292 90.7197 418.287 92.1427 418.956 93.7243L215.68 210.923L195.807 176.539C195.272 175.635 194.985 174.606 194.976 173.556C194.966 172.505 195.234 171.471 195.752 170.558Z" fill="#E4E5E7"></path><path fill-rule="evenodd" clip-rule="evenodd" d="M418.294 92.3962C419.774 94.9553 420.277 97.9634 419.707 100.863C411.669 142.462 389.124 179.858 356.082 206.401C323.039 232.943 281.641 246.912 239.247 245.824C238.195 245.812 237.164 245.522 236.259 244.984C235.355 244.446 234.608 243.678 234.096 242.759L214.96 209.66L418.294 92.3962Z" fill="#ADAEB9"></path><path fill-rule="evenodd" clip-rule="evenodd" d="M231.371 200.187L417.718 92.7198C405.553 129.06 382.04 160.537 350.635 182.524C319.229 204.512 281.587 215.849 243.243 214.871C242.191 214.857 241.161 214.567 240.257 214.03C239.352 213.493 238.605 212.728 238.09 211.811L231.371 200.187Z" fill="#C5C4C9"></path><path fill-rule="evenodd" clip-rule="evenodd" d="M229.564 234.91L214.962 209.647L261.207 182.978L262.611 185.406C262.907 185.906 263.099 186.462 263.174 187.038C263.249 187.615 263.206 188.2 263.047 188.759L255.031 218.676C254.889 219.245 254.633 219.778 254.276 220.244C253.92 220.709 253.472 221.096 252.96 221.381L229.564 234.91Z" fill="#A9AAB1"></path><path fill-rule="evenodd" clip-rule="evenodd" d="M351.367 77.0711C371.88 76.8839 392.276 80.2103 411.669 86.9058C414.47 87.8623 416.828 89.801 418.308 92.3624C419.788 94.9238 420.288 97.934 419.715 100.835C415.826 120.959 408.512 140.266 398.091 157.917L351.367 77.0711Z" fill="#FF5363"></path><path d="M308.022 183.152C325.789 187.913 344.046 177.383 348.802 159.634C353.558 141.885 343.011 123.638 325.245 118.877C307.479 114.117 289.221 124.646 284.465 142.395C279.709 160.144 290.256 178.392 308.022 183.152Z" fill="#BEBCC7"></path><path fill-rule="evenodd" clip-rule="evenodd" d="M191.538 219.915L194.349 224.779C194.924 225.769 195.868 226.492 196.975 226.789C198.082 227.086 199.261 226.932 200.254 226.361L261.035 191.313C262.024 190.737 262.745 189.794 263.041 188.689C263.337 187.584 263.184 186.407 262.615 185.413L259.801 180.543C259.225 179.554 258.28 178.832 257.174 178.535C256.067 178.239 254.889 178.392 253.895 178.961L193.12 214.01C192.127 214.584 191.403 215.528 191.106 216.635C190.809 217.742 190.965 218.922 191.538 219.915Z" fill="#FF5363"></path><path fill-rule="evenodd" clip-rule="evenodd" d="M337.765 143.616C340.353 148.094 341.554 153.237 341.216 158.395C340.879 163.553 339.019 168.495 335.87 172.595C332.721 176.696 328.426 179.771 323.527 181.431C318.628 183.092 313.346 183.263 308.348 181.924C303.35 180.585 298.861 177.795 295.449 173.908C292.037 170.02 289.854 165.21 289.177 160.084C288.501 154.959 289.36 149.749 291.647 145.113C293.934 140.477 297.546 136.624 302.026 134.04C308.034 130.576 315.174 129.639 321.876 131.435C328.578 133.231 334.293 137.612 337.765 143.616Z" fill="#A7A3A8"></path><path fill-rule="evenodd" clip-rule="evenodd" d="M339.283 137.954C341.871 142.432 343.072 147.575 342.734 152.733C342.397 157.891 340.536 162.833 337.388 166.934C334.239 171.034 329.944 174.109 325.045 175.769C320.146 177.43 314.864 177.601 309.866 176.262C304.868 174.923 300.379 172.133 296.967 168.246C293.555 164.358 291.372 159.548 290.695 154.422C290.019 149.297 290.878 144.087 293.165 139.451C295.452 134.815 299.064 130.962 303.544 128.378C306.519 126.662 309.803 125.549 313.209 125.102C316.615 124.654 320.076 124.882 323.395 125.771C326.714 126.66 329.825 128.194 332.551 130.284C335.277 132.375 337.564 134.981 339.283 137.954Z" fill="#FF5363"></path><path fill-rule="evenodd" clip-rule="evenodd" d="M311.846 133.17C315.378 132.225 319.111 132.349 322.574 133.524C326.037 134.7 329.074 136.875 331.301 139.774C333.528 142.674 334.844 146.168 335.084 149.814C335.324 153.46 334.476 157.095 332.649 160.258C330.821 163.422 328.095 165.973 324.815 167.588C321.536 169.203 317.85 169.81 314.225 169.333C310.599 168.855 307.196 167.314 304.446 164.904C301.696 162.494 299.722 159.324 298.775 155.794C298.146 153.451 297.985 151.006 298.301 148.601C298.618 146.195 299.405 143.876 300.619 141.775C301.833 139.674 303.449 137.833 305.375 136.356C307.301 134.88 309.5 133.797 311.846 133.17Z" fill="#6886FF"></path><path fill-rule="evenodd" clip-rule="evenodd" d="M312.803 136.749C314.678 136.247 316.633 136.119 318.558 136.372C320.482 136.625 322.338 137.255 324.02 138.224C325.701 139.194 327.175 140.486 328.357 142.025C329.539 143.563 330.406 145.32 330.909 147.193C333.025 155.078 323.565 145.352 315.681 147.459C307.798 149.566 304.471 162.712 302.364 154.813C301.354 151.033 301.885 147.008 303.843 143.621C305.8 140.235 309.022 137.763 312.803 136.749Z" fill="#FEFFFF"></path><path fill-rule="evenodd" clip-rule="evenodd" d="M209.579 157.245C226.343 133.617 248.59 114.403 274.415 101.246C300.239 88.0895 328.873 81.3823 357.865 81.6986C326.389 86.6239 294.877 97.7366 265.523 114.647C245.118 126.383 226.315 140.701 209.579 157.245Z" fill="#FEFFFF"></path><path fill-rule="evenodd" clip-rule="evenodd" d="M208.337 107.505C209.652 109.772 195.327 120.477 176.351 131.425C157.376 142.373 140.928 149.405 139.613 147.139C138.299 144.872 152.625 134.162 171.606 123.215C190.587 112.269 207.029 105.235 208.337 107.505Z" fill="#FF7C88"></path><path fill-rule="evenodd" clip-rule="evenodd" d="M300.214 266.452C301.523 268.717 287.198 279.422 268.222 290.37C249.247 301.318 232.799 308.351 231.484 306.084C230.17 303.818 244.501 293.108 263.477 282.16C282.453 271.213 298.9 264.18 300.214 266.452Z" fill="#E64859"></path><path fill-rule="evenodd" clip-rule="evenodd" d="M254.276 186.987C255.585 189.252 241.259 199.963 222.285 210.906C203.31 221.848 186.861 228.886 185.547 226.619C184.232 224.353 198.564 213.644 217.539 202.696C236.515 191.748 252.963 184.715 254.276 186.987Z" fill="#FF7C88"></path></g><defs><filter id="filter0_d_6772_45935" x="-3.77539" y="0" width="430.985" height="428.863" filterUnits="userSpaceOnUse" color-interpolation-filters="sRGB"><feFlood flood-opacity="0" result="BackgroundImageFix"></feFlood><feColorMatrix in="SourceAlpha" type="matrix" values="0 0 0 0 0 0 0 0 0 0 0 0 0 0 0 0 0 0 127 0" result="hardAlpha"></feColorMatrix><feOffset dy="4"></feOffset><feGaussianBlur stdDeviation="2"></feGaussianBlur><feComposite in2="hardAlpha" operator="out"></feComposite><feColorMatrix type="matrix" values="0 0 0 0 0 0 0 0 0 0 0 0 0 0 0 0 0 0 0.25 0"></feColorMatrix><feBlend mode="normal" in2="BackgroundImageFix" result="effect1_dropShadow_6772_45935"></feBlend><feBlend mode="normal" in="SourceGraphic" in2="effect1_dropShadow_6772_45935" result="shape"></feBlend></filter><clipPath id="clip0_6772_45935"><rect width="346" height="343" fill="white" transform="translate(89) rotate(15)"></rect></clipPath></defs></svg>