<svg width="40" height="30" viewBox="0 0 40 30" fill="none" xmlns="http://www.w3.org/2000/svg"><path d="M10.2016 26.862V25.2786C10.2016 24.6713 9.83202 24.2756 9.2254 24.2756C8.9068 24.2756 8.56589 24.3814 8.32821 24.7217C8.14342 24.4311 7.88216 24.2756 7.48391 24.2756C7.18314 24.2626 6.89593 24.4014 6.71926 24.6452V24.3266H6.21777V26.8601H6.71926V25.4105C6.71926 24.9644 6.98306 24.751 7.35264 24.751C7.72222 24.751 7.93314 24.9886 7.93314 25.4105V26.862H8.43462V25.4105C8.43462 24.9644 8.69843 24.751 9.06801 24.751C9.43759 24.751 9.64851 24.9886 9.64851 25.4105V26.862H10.2016ZM18.4356 24.3546H17.5117V23.59H17.0115V24.3546H16.4839V24.8007H17.0115V25.991C17.0115 26.5715 17.2224 26.9149 17.8558 26.9149C18.0957 26.9099 18.3308 26.8465 18.5408 26.7301L18.3821 26.2841C18.2397 26.3731 18.0746 26.4189 17.9067 26.416C17.6429 26.416 17.511 26.2573 17.511 25.9935V24.7803H18.435V24.3578L18.4356 24.3546ZM23.1331 24.2756C22.8553 24.2694 22.5946 24.4098 22.4469 24.6452V24.3266H21.9454V26.8601H22.4469V25.4372C22.4469 25.0148 22.6578 24.751 23.0012 24.751C23.1171 24.7557 23.2321 24.7734 23.344 24.8039L23.5027 24.3285C23.3817 24.298 23.2578 24.2803 23.1331 24.2756ZM16.034 24.5394C15.7702 24.3546 15.4006 24.2756 15.0049 24.2756C14.3715 24.2756 13.9758 24.5662 13.9758 25.0677C13.9758 25.4901 14.2664 25.7272 14.8201 25.8068L15.0839 25.8329C15.3745 25.8858 15.5593 25.9916 15.5593 26.1235C15.5593 26.3083 15.3483 26.4421 14.952 26.4421C14.6494 26.4483 14.353 26.3557 14.1077 26.1783L13.8439 26.574C14.2135 26.8378 14.6621 26.8926 14.9271 26.8926C15.6663 26.8926 16.062 26.5498 16.062 26.0745C16.062 25.6284 15.7434 25.4149 15.191 25.3353L14.9271 25.3092C14.6895 25.283 14.4811 25.2034 14.4811 25.0454C14.4811 24.8606 14.692 24.7268 14.9826 24.7268C15.3012 24.7268 15.616 24.8587 15.7746 24.9377L16.034 24.5394ZM23.6875 25.5953C23.6875 26.3599 24.189 26.9149 25.0072 26.9149C25.3767 26.9149 25.6406 26.8359 25.9044 26.6244L25.6406 26.2287C25.4538 26.3799 25.2214 26.4637 24.981 26.4663C24.535 26.4663 24.189 26.1235 24.189 25.622C24.189 25.1205 24.5305 24.7803 24.981 24.7803C25.2214 24.7829 25.4538 24.8667 25.6406 25.018L25.9044 24.6223C25.6406 24.4113 25.3767 24.3317 25.0072 24.3317C24.2151 24.2788 23.6875 24.8332 23.6875 25.5985V25.5953ZM20.151 24.2756C19.4118 24.2756 18.9103 24.8032 18.9103 25.5953C18.9103 26.3873 19.438 26.9149 20.2032 26.9149C20.5756 26.9228 20.9391 26.8017 21.2323 26.5721L20.9685 26.2025C20.7565 26.3669 20.4975 26.4593 20.2294 26.4663C19.8866 26.4663 19.517 26.2554 19.4647 25.8068H21.3388V25.5959C21.3388 24.8039 20.8634 24.2762 20.151 24.2762V24.2756ZM20.1249 24.751C20.4944 24.751 20.7583 24.9886 20.7844 25.3844H19.4125C19.4915 25.0148 19.7311 24.751 20.1249 24.751ZM13.2895 25.5953V24.3285H12.788V24.6471C12.6032 24.4094 12.342 24.2775 11.9699 24.2775C11.2575 24.2775 10.7292 24.8319 10.7292 25.5972C10.7292 26.3625 11.2568 26.9168 11.9699 26.9168C12.3394 26.9168 12.6032 26.7849 12.788 26.5473V26.8659H13.2895V25.5953ZM11.2575 25.5953C11.2575 25.1199 11.548 24.751 12.0495 24.751C12.5249 24.751 12.8142 25.1205 12.8142 25.5953C12.8142 26.0968 12.4956 26.4396 12.0495 26.4396C11.548 26.4657 11.2575 26.07 11.2575 25.5953ZM30.7612 24.2756C30.4833 24.2694 30.2227 24.4098 30.0749 24.6452V24.3266H29.5734V26.8601H30.0743V25.4372C30.0743 25.0148 30.2852 24.751 30.6286 24.751C30.7445 24.7557 30.8595 24.7734 30.9714 24.8039L31.1301 24.3285C31.0091 24.298 30.8852 24.2803 30.7605 24.2756H30.7612ZM28.8081 25.5953V24.3285H28.3066V24.6471C28.1218 24.4094 27.8606 24.2775 27.4885 24.2775C26.7761 24.2775 26.2478 24.8319 26.2478 25.5972C26.2478 26.3625 26.7754 26.9168 27.4885 26.9168C27.858 26.9168 28.1218 26.7849 28.3066 26.5473V26.8659H28.8081V25.5953ZM26.7761 25.5953C26.7761 25.1199 27.0666 24.751 27.5681 24.751C28.0435 24.751 28.3328 25.1205 28.3328 25.5953C28.3328 26.0968 28.0142 26.4396 27.5681 26.4396C27.0666 26.4657 26.7761 26.07 26.7761 25.5953ZM33.902 25.5953V23.3255H33.4005V24.6452C33.2157 24.4075 32.9544 24.2756 32.5823 24.2756C31.8699 24.2756 31.3417 24.83 31.3417 25.5953C31.3417 26.3606 31.8693 26.9149 32.5823 26.9149C32.9519 26.9149 33.2157 26.783 33.4005 26.5453V26.864H33.902V25.5953ZM31.8699 25.5953C31.8699 25.1199 32.1605 24.751 32.662 24.751C33.1373 24.751 33.4266 25.1205 33.4266 25.5953C33.4266 26.0968 33.108 26.4396 32.662 26.4396C32.1598 26.4663 31.8693 26.0706 31.8693 25.5953H31.8699Z" fill="white"></path><path d="M24.6121 5.11537H15.4541V20.0528H24.6121V5.11537Z" fill="#FF5F00"></path><path d="M16.3776 12.5841C16.3782 9.67285 17.71 6.92171 19.9931 5.11537C16.098 2.05285 10.5033 2.49802 7.14148 6.13796C3.77966 9.77791 3.77966 15.3903 7.14148 19.0302C10.5033 22.6702 16.098 23.1153 19.9931 20.0528C17.71 18.2465 16.3782 15.4953 16.3776 12.5841Z" fill="#EB001B"></path><path d="M35.3802 12.5841C35.3828 16.2192 33.309 19.5364 30.0401 21.1263C26.7711 22.7161 22.8813 22.2993 20.0234 20.0528C22.3071 18.2469 23.6391 15.4955 23.6391 12.5841C23.6391 9.67268 22.3071 6.92126 20.0234 5.11537C22.8813 2.86892 26.7711 2.45205 30.0401 4.04191C33.309 5.63176 35.3828 8.94903 35.3802 12.5841Z" fill="#F79E1B"></path></svg>